<svg width="32" height="32" viewBox="0 0 32 32" fill="none" xmlns="http://www.w3.org/2000/svg">
<path d="M29.3337 14.0015V16.0015C29.3337 22.2869 29.3337 25.4295 27.3803 27.3815C25.4297 29.3349 22.2857 29.3349 16.0003 29.3349C9.71499 29.3349 6.57233 29.3349 4.61899 27.3815C2.66699 25.4309 2.66699 22.2869 2.66699 16.0015C2.66699 9.71621 2.66699 6.57355 4.61899 4.62021C6.57366 2.66821 9.71499 2.66821 16.0003 2.66821H18.0003" stroke="#7D22F5" stroke-width="2" stroke-linecap="round"/>
<path d="M22.203 4.60813L23.0683 3.7428C23.7568 3.05447 24.6906 2.66784 25.6641 2.66797C26.6377 2.66809 27.5713 3.05496 28.2597 3.74346C28.948 4.43196 29.3346 5.3657 29.3345 6.33927C29.3344 7.31283 28.9475 8.24647 28.259 8.9348L27.3923 9.80013C27.3923 9.80013 25.555 9.69213 23.9337 8.06946C22.311 6.44813 22.203 4.60946 22.203 4.60946L14.2497 12.5615C13.711 13.1001 13.4417 13.3695 13.2097 13.6668C12.9359 14.0179 12.703 14.3948 12.511 14.7975C12.3497 15.1375 12.2297 15.4988 11.9883 16.2215L11.2163 18.5348M11.2163 18.5348L10.7177 20.0308C10.659 20.2053 10.6502 20.3926 10.6922 20.5719C10.7342 20.7511 10.8254 20.915 10.9555 21.0452C11.0856 21.1754 11.2494 21.2668 11.4286 21.309C11.6078 21.3512 11.7951 21.3426 11.9697 21.2841L13.467 20.7855M11.2163 18.5348L13.467 20.7855M27.3937 9.7988L19.4403 17.7521C18.9017 18.2908 18.6323 18.5601 18.335 18.7921C17.9845 19.0653 17.6054 19.2996 17.2043 19.4908C16.8643 19.6521 16.503 19.7721 15.7803 20.0135L13.467 20.7855" stroke="#7D22F5" stroke-width="2"/>
</svg>
