<svg width="28" height="28" viewBox="0 0 28 28" fill="none" xmlns="http://www.w3.org/2000/svg">
<path d="M24.7658 24.7656H2.25195" stroke="#0F172A" stroke-width="1.68854" stroke-linecap="round"/>
<path d="M19.1367 24.7639V6.75278C19.1367 4.62972 19.1367 3.56931 18.477 2.90966C17.8174 2.25 16.757 2.25 14.6339 2.25H12.3825C10.2594 2.25 9.19905 2.25 8.53939 2.90966C7.87973 3.56931 7.87973 4.62972 7.87973 6.75278V24.7639M23.6395 24.7639V12.9441C23.6395 11.3625 23.6395 10.5723 23.2601 10.0049C23.0958 9.75898 22.8846 9.54783 22.6387 9.38353C22.0714 9.00417 21.28 9.00417 19.6995 9.00417M3.37695 24.7639V12.9441C3.37695 11.3625 3.37695 10.5723 3.75631 10.0049C3.92061 9.75898 4.13176 9.54783 4.3777 9.38353C4.94505 9.00417 5.73641 9.00417 7.31688 9.00417" stroke="#0F172A" stroke-width="1.68854"/>
<path d="M13.5092 24.7657V21.3886M11.2578 5.62891H15.7606M11.2578 9.00599H15.7606M11.2578 12.3831H15.7606M11.2578 15.7602H15.7606" stroke="#0F172A" stroke-width="1.68854" stroke-linecap="round"/>
</svg>
