<svg width="32" height="32" viewBox="0 0 32 32" fill="none" xmlns="http://www.w3.org/2000/svg">
<path d="M16.0003 29.3346C23.3643 29.3346 29.3337 23.3653 29.3337 16.0013C29.3337 8.6373 23.3643 2.66797 16.0003 2.66797C8.63633 2.66797 2.66699 8.6373 2.66699 16.0013C2.66699 18.1346 3.16833 20.1506 4.05766 21.9386C4.29499 22.4133 4.37366 22.956 4.23633 23.4693L3.44299 26.4373C3.36442 26.731 3.36449 27.0402 3.4432 27.3339C3.52191 27.6276 3.67648 27.8954 3.89141 28.1105C4.10634 28.3256 4.37406 28.4803 4.66769 28.5592C4.96133 28.6381 5.27055 28.6384 5.56433 28.56L8.53233 27.7653C9.0475 27.6351 9.59251 27.6982 10.0643 27.9426C11.9083 28.8607 13.9405 29.3373 16.0003 29.3346Z" stroke="#7D22F5" stroke-width="2"/>
<path d="M10.667 14H21.3337M10.667 18.6667H18.0003" stroke="#7D22F5" stroke-width="2" stroke-linecap="round"/>
</svg>
