<svg width="32" height="32" viewBox="0 0 32 32" fill="none" xmlns="http://www.w3.org/2000/svg">
<path d="M15.9993 13.3346C18.9449 13.3346 21.3327 10.9468 21.3327 8.0013C21.3327 5.05578 18.9449 2.66797 15.9993 2.66797C13.0538 2.66797 10.666 5.05578 10.666 8.0013C10.666 10.9468 13.0538 13.3346 15.9993 13.3346Z" stroke="#7D22F5" stroke-width="2"/>
<path d="M24 12.0026C26.2093 12.0026 28 10.5093 28 8.66927C28 6.82927 26.2093 5.33594 24 5.33594M8 12.0026C5.79067 12.0026 4 10.5093 4 8.66927C4 6.82927 5.79067 5.33594 8 5.33594" stroke="#7D22F5" stroke-width="2" stroke-linecap="round"/>
<path d="M16 28.0026C20.4183 28.0026 24 25.6148 24 22.6693C24 19.7238 20.4183 17.3359 16 17.3359C11.5817 17.3359 8 19.7238 8 22.6693C8 25.6148 11.5817 28.0026 16 28.0026Z" stroke="#7D22F5" stroke-width="2"/>
<path d="M26.6663 25.3346C29.005 24.8213 30.6663 23.5226 30.6663 22.0013C30.6663 20.48 29.005 19.1813 26.6663 18.668M5.33301 25.3346C2.99434 24.8213 1.33301 23.5226 1.33301 22.0013C1.33301 20.48 2.99434 19.1813 5.33301 18.668" stroke="#7D22F5" stroke-width="2" stroke-linecap="round"/>
</svg>
