<svg width="32" height="32" viewBox="0 0 32 32" fill="none" xmlns="http://www.w3.org/2000/svg">
<path d="M21.3333 5.33594C24.2333 5.35194 25.804 5.48127 26.828 6.50527C28 7.67727 28 9.5626 28 13.3333V21.3333C28 25.1053 28 26.9906 26.828 28.1626C25.6573 29.3333 23.7707 29.3333 20 29.3333H12C8.22933 29.3333 6.34267 29.3333 5.172 28.1626C4 26.9893 4 25.1053 4 21.3333V13.3333C4 9.5626 4 7.67727 5.172 6.50527C6.196 5.48127 7.76667 5.35194 10.6667 5.33594" stroke="#7D22F5" stroke-width="2"/>
<path d="M12 17.868L14.2853 20.0013L20 14.668" stroke="#7D22F5" stroke-width="2" stroke-linecap="round" stroke-linejoin="round"/>
<path d="M10.667 4.66797C10.667 4.13754 10.8777 3.62883 11.2528 3.25376C11.6279 2.87868 12.1366 2.66797 12.667 2.66797H19.3337C19.8641 2.66797 20.3728 2.87868 20.7479 3.25376C21.1229 3.62883 21.3337 4.13754 21.3337 4.66797V6.0013C21.3337 6.53174 21.1229 7.04044 20.7479 7.41552C20.3728 7.79059 19.8641 8.0013 19.3337 8.0013H12.667C12.1366 8.0013 11.6279 7.79059 11.2528 7.41552C10.8777 7.04044 10.667 6.53174 10.667 6.0013V4.66797Z" stroke="#7D22F5" stroke-width="2"/>
</svg>
