<svg width="16" height="16" viewBox="0 0 16 16" fill="none" xmlns="http://www.w3.org/2000/svg">
<path d="M1.33301 13.3346H2.66634M2.66634 13.3346H7.99967M2.66634 13.3346V4.80143C2.66634 4.0547 2.66634 3.68105 2.81167 3.39583C2.9395 3.14495 3.14332 2.94112 3.39421 2.81329C3.67942 2.66797 4.05307 2.66797 4.7998 2.66797H5.86647C6.61321 2.66797 6.98638 2.66797 7.2716 2.81329C7.52248 2.94112 7.72666 3.14495 7.85449 3.39583C7.99967 3.68077 7.99967 4.05396 7.99967 4.79924V6.83203M7.99967 13.3346H13.333M7.99967 13.3346V6.83203M13.333 13.3346H14.6663M13.333 13.3346V9.58008C13.333 9.22995 13.333 9.0546 13.291 8.89128C13.2538 8.7465 13.1923 8.6092 13.1095 8.48475C13.016 8.34434 12.886 8.22717 12.6255 7.9931L11.0921 6.61556C10.5881 6.16277 10.336 5.93647 10.0511 5.85059C9.80014 5.77494 9.53237 5.77494 9.2814 5.85059C8.99653 5.93646 8.74451 6.16287 8.24062 6.61556L7.99967 6.83203" stroke="#EA580C" stroke-linecap="round" stroke-linejoin="round"/>
</svg>
