<svg width="23" height="23" viewBox="0 0 23 23" fill="none" xmlns="http://www.w3.org/2000/svg">
<path d="M0.75 11.25H6.58333M0.75 11.25C0.75 17.049 5.45101 21.75 11.25 21.75M0.75 11.25C0.75 5.45101 5.45101 0.75 11.25 0.75M6.58333 11.25H15.9167M6.58333 11.25C6.58333 17.049 8.67267 21.75 11.25 21.75M6.58333 11.25C6.58333 5.45101 8.67267 0.75 11.25 0.75M15.9167 11.25H21.75M15.9167 11.25C15.9167 5.45101 13.8273 0.75 11.25 0.75M15.9167 11.25C15.9167 17.049 13.8273 21.75 11.25 21.75M21.75 11.25C21.75 5.45101 17.049 0.75 11.25 0.75M21.75 11.25C21.75 17.049 17.049 21.75 11.25 21.75" stroke="url(#paint0_linear_19_20)" stroke-width="1.5" stroke-linecap="round" stroke-linejoin="round"/>
<defs>
<linearGradient id="paint0_linear_19_20" x1="0.75" y1="11.25" x2="21.75" y2="11.25" gradientUnits="userSpaceOnUse">
<stop stop-color="#B47BFE"/>
<stop offset="1" stop-color="#371E5A"/>
</linearGradient>
</defs>
</svg>
