<svg width="27" height="27" viewBox="0 0 27 27" fill="none" xmlns="http://www.w3.org/2000/svg">
<path d="M3 13.8621H9.03448M3 13.8621C3 19.861 7.86311 24.7241 13.8621 24.7241M3 13.8621C3 7.86311 7.86311 3 13.8621 3M9.03448 13.8621H18.6897M9.03448 13.8621C9.03448 19.861 11.1959 24.7241 13.8621 24.7241M9.03448 13.8621C9.03448 7.86311 11.1959 3 13.8621 3M18.6897 13.8621H24.7241M18.6897 13.8621C18.6897 7.86311 16.5283 3 13.8621 3M18.6897 13.8621C18.6897 19.861 16.5283 24.7241 13.8621 24.7241M24.7241 13.8621C24.7241 7.86311 19.861 3 13.8621 3M24.7241 13.8621C24.7241 19.861 19.861 24.7241 13.8621 24.7241" stroke="url(#paint0_linear_42_30)" stroke-width="1.5" stroke-linecap="round" stroke-linejoin="round"/>
<defs>
<linearGradient id="paint0_linear_42_30" x1="3" y1="13.8621" x2="24.7241" y2="13.8621" gradientUnits="userSpaceOnUse">
<stop stop-color="#B47BFE"/>
<stop offset="1" stop-color="#371E5A"/>
</linearGradient>
</defs>
</svg>
