<svg width="28" height="28" viewBox="0 0 28 28" fill="none" xmlns="http://www.w3.org/2000/svg">
<path d="M3.5 14H9.33333M3.5 14C3.5 19.799 8.20101 24.5 14 24.5M3.5 14C3.5 8.20101 8.20101 3.5 14 3.5M9.33333 14H18.6667M9.33333 14C9.33333 19.799 11.4227 24.5 14 24.5M9.33333 14C9.33333 8.20101 11.4227 3.5 14 3.5M18.6667 14H24.5M18.6667 14C18.6667 8.20101 16.5773 3.5 14 3.5M18.6667 14C18.6667 19.799 16.5773 24.5 14 24.5M24.5 14C24.5 8.20101 19.799 3.5 14 3.5M24.5 14C24.5 19.799 19.799 24.5 14 24.5" stroke="url(#paint0_linear_1_639)" stroke-width="1.5" stroke-linecap="round" stroke-linejoin="round"/>
<defs>
<linearGradient id="paint0_linear_1_639" x1="3.5" y1="14" x2="24.5" y2="14" gradientUnits="userSpaceOnUse">
<stop stop-color="#B47BFE"/>
<stop offset="1" stop-color="#371E5A"/>
</linearGradient>
</defs>
</svg>
