<svg width="20" height="20" viewBox="0 0 20 20" fill="none" xmlns="http://www.w3.org/2000/svg">
<path d="M8.13381 11.9722C7.65464 11.4938 7.36298 10.8438 7.36298 10.1147C7.36298 8.65382 8.53964 7.47632 9.99964 7.47632C10.7221 7.47632 11.3871 7.76882 11.858 8.24715" stroke="#EF4444" stroke-width="1.5" stroke-linecap="round" stroke-linejoin="round"/>
<path d="M12.5873 10.5823C12.394 11.6573 11.5473 12.5056 10.4731 12.7006" stroke="#EF4444" stroke-width="1.5" stroke-linecap="round" stroke-linejoin="round"/>
<path d="M5.54549 14.5602C4.22299 13.5219 3.10299 12.0052 2.29132 10.1144C3.11132 8.21523 4.23882 6.69023 5.56965 5.64356C6.89215 4.5969 8.41799 4.02856 9.99965 4.02856C11.5905 4.02856 13.1155 4.60523 14.4463 5.6594" stroke="#EF4444" stroke-width="1.5" stroke-linecap="round" stroke-linejoin="round"/>
<path d="M16.2063 7.49219C16.7796 8.25385 17.2838 9.13302 17.708 10.1139C16.0688 13.9114 13.1721 16.1989 9.99965 16.1989C9.28048 16.1989 8.57132 16.0822 7.88965 15.8547" stroke="#EF4444" stroke-width="1.5" stroke-linecap="round" stroke-linejoin="round"/>
<path d="M16.5725 3.54126L3.42749 16.6863" stroke="#EF4444" stroke-width="1.5" stroke-linecap="round" stroke-linejoin="round"/>
</svg>
