<svg width="20" height="20" viewBox="0 0 20 20" fill="none" xmlns="http://www.w3.org/2000/svg">
<path d="M10.0002 10.0013L7.53524 12.4421C5.10024 14.8538 3.88274 16.0596 4.22357 17.1005C4.25246 17.1894 4.28857 17.276 4.33191 17.3605C4.83357 18.3346 6.55607 18.3346 10.0002 18.3346C13.4444 18.3346 15.1669 18.3346 15.6686 17.3596C15.7119 17.2763 15.748 17.1899 15.7769 17.1005C16.1186 16.0596 14.9002 14.8538 12.4652 12.4421L10.0002 10.0013ZM10.0002 10.0013L12.4652 7.56047C14.9002 5.1488 16.1177 3.94297 15.7769 2.90214C15.7482 2.81257 15.712 2.72559 15.6686 2.64214C15.1669 1.66797 13.4444 1.66797 10.0002 1.66797C6.55607 1.66797 4.83357 1.66797 4.33191 2.64297C4.28857 2.7263 4.25246 2.81269 4.22357 2.90214C3.88191 3.94297 5.10024 5.1488 7.53524 7.56047L10.0002 10.0013Z" stroke="#EAB308" stroke-width="1.25"/>
</svg>
