<svg width="20" height="20" viewBox="0 0 20 20" fill="none" xmlns="http://www.w3.org/2000/svg">
<path d="M11.667 17.7097H8.33366V18.9597H11.667V17.7097ZM2.29199 11.668V8.33468H1.04199V11.668H2.29199ZM17.7087 11.3038V11.668H18.9587V11.3038H17.7087ZM12.4095 3.84385L15.7087 6.81301L16.5445 5.88302L13.2462 2.91385L12.4095 3.84385ZM18.9587 11.3038C18.9587 9.89635 18.9712 9.00468 18.617 8.20801L17.4745 8.71718C17.6962 9.21551 17.7087 9.78635 17.7087 11.3038H18.9587ZM15.7087 6.81301C16.8362 7.82801 17.2528 8.21968 17.4745 8.71718L18.617 8.20801C18.262 7.41051 17.5912 6.82468 16.5445 5.88302L15.7087 6.81301ZM8.35866 2.29302C9.67699 2.29302 10.1745 2.30302 10.617 2.47302L11.0653 1.30635C10.3553 1.03302 9.58199 1.04302 8.35866 1.04302V2.29302ZM13.2462 2.91468C12.3412 2.10052 11.7753 1.57802 11.0653 1.30635L10.6178 2.47302C11.0612 2.64302 11.4345 2.96635 12.4095 3.84385L13.2462 2.91468ZM8.33366 17.7097C6.74449 17.7097 5.61616 17.708 4.75866 17.593C3.92116 17.4805 3.43783 17.2688 3.08533 16.9163L2.20199 17.7997C2.82533 18.4247 3.61616 18.7005 4.59283 18.8322C5.55116 18.9613 6.78033 18.9597 8.33366 18.9597V17.7097ZM1.04199 11.668C1.04199 13.2213 1.04033 14.4497 1.16949 15.4088C1.30116 16.3855 1.57783 17.1763 2.20116 17.8005L3.08449 16.9172C2.73283 16.5638 2.52116 16.0805 2.40866 15.2422C2.29366 14.3863 2.29199 13.2572 2.29199 11.668H1.04199ZM11.667 18.9597C13.2203 18.9597 14.4487 18.9613 15.4078 18.8322C16.3845 18.7005 17.1753 18.4238 17.7995 17.8005L16.9162 16.9172C16.5628 17.2688 16.0795 17.4805 15.2412 17.593C14.3853 17.708 13.2562 17.7097 11.667 17.7097V18.9597ZM17.7087 11.668C17.7087 13.2572 17.707 14.3863 17.592 15.243C17.4795 16.0805 17.2678 16.5638 16.9153 16.9163L17.7987 17.7997C18.4237 17.1763 18.6995 16.3855 18.8312 15.4088C18.9603 14.4505 18.9587 13.2213 18.9587 11.668H17.7087ZM2.29199 8.33468C2.29199 6.74551 2.29366 5.61718 2.40866 4.75968C2.52116 3.92218 2.73283 3.43885 3.08533 3.08635L2.20199 2.20302C1.57699 2.82635 1.30116 3.61718 1.16949 4.59385C1.04033 5.55218 1.04199 6.78135 1.04199 8.33468H2.29199ZM8.35866 1.04302C6.79616 1.04302 5.56199 1.04135 4.59949 1.17052C3.61866 1.30218 2.82533 1.57885 2.20116 2.20218L3.08449 3.08552C3.43783 2.73385 3.92199 2.52218 4.76533 2.40968C5.62616 2.29468 6.76116 2.29302 8.35866 2.29302V1.04302Z" fill="#F97316"/>
<path d="M10.834 2.08594V4.16927C10.834 6.13344 10.834 7.11594 11.444 7.72594C12.054 8.33594 13.0365 8.33594 15.0007 8.33594H18.334" stroke="#F97316" stroke-width="1.25"/>
<path d="M5 13.75L6.11083 15L8.33333 12.5" stroke="#F97316" stroke-width="1.25" stroke-linecap="round" stroke-linejoin="round"/>
</svg>
