<svg width="24" height="24" viewBox="0 0 24 24" fill="none" xmlns="http://www.w3.org/2000/svg">
<path d="M22 22H2" stroke="#475569" stroke-width="1.5" stroke-linecap="round"/>
<path d="M21 22V6C21 4.114 21 3.172 20.414 2.586C19.828 2 18.886 2 17 2H15C13.114 2 12.172 2 11.586 2.586C11.114 3.057 11.022 3.76 11.004 5" stroke="#475569" stroke-width="1.5"/>
<path d="M15 22V9C15 7.114 15 6.172 14.414 5.586C13.828 5 12.886 5 11 5H7C5.114 5 4.172 5 3.586 5.586C3 6.172 3 7.114 3 9V22" stroke="#475569" stroke-width="1.5"/>
<path d="M9 22V19M6 8H12M6 11H12M6 14H12" stroke="#475569" stroke-width="1.5" stroke-linecap="round"/>
</svg>
