<svg width="20" height="20" viewBox="0 0 20 20" fill="none" xmlns="http://www.w3.org/2000/svg">
<path d="M2.5 8.68214C2.5 6.01714 2.5 4.68464 2.815 4.2363C3.12917 3.7888 4.38167 3.35964 6.8875 2.50214L7.365 2.3388C8.67083 1.8913 9.32333 1.66797 10 1.66797C10.6767 1.66797 11.3292 1.8913 12.635 2.3388L13.1125 2.50214C15.6183 3.35964 16.8708 3.7888 17.185 4.2363C17.5 4.68464 17.5 6.01797 17.5 8.68214V9.9938C17.5 14.6921 13.9675 16.973 11.7508 17.9405C11.15 18.203 10.85 18.3346 10 18.3346C9.15 18.3346 8.85 18.203 8.24917 17.9405C6.0325 16.9721 2.5 14.693 2.5 9.9938V8.68214Z" stroke="#0891B2" stroke-width="1.25"/>
<path d="M10 6.66797V10.0013" stroke="#0891B2" stroke-width="1.25" stroke-linecap="round"/>
<path d="M10.0003 13.3346C10.4606 13.3346 10.8337 12.9615 10.8337 12.5013C10.8337 12.0411 10.4606 11.668 10.0003 11.668C9.54009 11.668 9.16699 12.0411 9.16699 12.5013C9.16699 12.9615 9.54009 13.3346 10.0003 13.3346Z" fill="#0891B2"/>
</svg>
