<svg width="27" height="27" viewBox="0 0 27 27" fill="none" xmlns="http://www.w3.org/2000/svg">
<path d="M9 9H6.97522C5.7151 9 5.08457 9 4.60327 9.24524C4.17991 9.46095 3.83595 9.80491 3.62024 10.2283C3.375 10.7096 3.375 11.3401 3.375 12.6002V18.9002C3.375 20.1603 3.375 20.7901 3.62024 21.2714C3.83595 21.6947 4.17991 22.0393 4.60327 22.255C5.0841 22.5 5.71387 22.5 6.97152 22.5H20.0285C21.2861 22.5 21.915 22.5 22.3958 22.255C22.8192 22.0393 23.1643 21.6947 23.38 21.2714C23.625 20.7905 23.625 20.1617 23.625 18.904V12.5965C23.625 11.3389 23.625 10.7091 23.38 10.2283C23.1643 9.80491 22.8192 9.46095 22.3958 9.24524C21.9145 9 21.2853 9 20.0252 9H18M9 9H18M9 9C9 6.51472 11.0147 4.5 13.5 4.5C15.9853 4.5 18 6.51472 18 9" stroke="#EA580C" stroke-width="2" stroke-linecap="round" stroke-linejoin="round"/>
</svg>
