<svg width="26" height="26" viewBox="0 0 26 26" fill="none" xmlns="http://www.w3.org/2000/svg">
<path d="M10.5962 4.21336C11.2072 3.69336 11.5127 3.43336 11.8312 3.28061C12.196 3.10617 12.5953 3.01562 12.9996 3.01562C13.404 3.01563 13.8032 3.10617 14.168 3.28061C14.4876 3.43227 14.7931 3.69227 15.403 4.21336C15.6467 4.42136 15.7681 4.52427 15.8981 4.61094C16.1958 4.81046 16.5301 4.94892 16.8817 5.01827C17.0345 5.04861 17.1937 5.06161 17.5122 5.08761C18.3128 5.15044 18.7126 5.18294 19.0462 5.30102C19.4274 5.43552 19.7735 5.6536 20.0594 5.93928C20.3453 6.22496 20.5636 6.571 20.6983 6.95202C20.8164 7.28677 20.8478 7.68652 20.9117 8.48602C20.9367 8.80452 20.9497 8.96377 20.98 9.11761C21.0493 9.46861 21.188 9.80336 21.3873 10.1002C21.474 10.2302 21.578 10.3515 21.7849 10.5953C22.3049 11.2063 22.566 11.5118 22.7187 11.8303C22.8932 12.1951 22.9837 12.5943 22.9837 12.9986C22.9837 13.403 22.8932 13.8022 22.7187 14.167C22.5671 14.4855 22.306 14.791 21.7849 15.402C21.6428 15.5591 21.5101 15.7244 21.3873 15.8971C21.1879 16.1945 21.0495 16.5285 20.98 16.8797C20.9497 17.0335 20.9367 17.1928 20.9117 17.5113C20.8478 18.3108 20.8164 18.7116 20.6983 19.0453C20.5636 19.4263 20.3453 19.7723 20.0594 20.058C19.7735 20.3437 19.4274 20.5618 19.0462 20.6963C18.7126 20.8154 18.3128 20.8469 17.5122 20.9097C17.1937 20.9357 17.0356 20.9487 16.8817 20.979C16.5301 21.0484 16.1958 21.1868 15.8981 21.3864C15.7258 21.5091 15.5608 21.6419 15.4041 21.7839C14.7931 22.3039 14.4876 22.5639 14.1691 22.7167C13.8043 22.8911 13.4051 22.9817 13.0007 22.9817C12.5964 22.9817 12.1971 22.8911 11.8323 22.7167C11.5127 22.565 11.2072 22.305 10.5973 21.7839C10.4402 21.6418 10.2749 21.5091 10.1022 21.3864C9.80454 21.1868 9.47019 21.0484 9.11858 20.979C8.90995 20.9436 8.69942 20.9205 8.48808 20.9097C7.6875 20.8469 7.28775 20.8144 6.95408 20.6963C6.57297 20.5618 6.22679 20.3437 5.94092 20.058C5.65505 19.7723 5.43674 19.4263 5.302 19.0453C5.18392 18.7116 5.1525 18.3108 5.08858 17.5113C5.07821 17.2996 5.05542 17.0887 5.02033 16.8797C4.95084 16.5285 4.81239 16.1945 4.613 15.8971C4.52633 15.7671 4.42233 15.6458 4.21542 15.402C3.69542 14.791 3.43433 14.4855 3.28158 14.167C3.10714 13.8022 3.0166 13.403 3.0166 12.9986C3.0166 12.5943 3.10714 12.1951 3.28158 11.8303C3.43433 11.5118 3.69433 11.2063 4.21542 10.5953C4.42233 10.3515 4.52633 10.2302 4.613 10.1002C4.81239 9.80281 4.95084 9.46884 5.02033 9.11761C5.05067 8.96377 5.06367 8.80452 5.08858 8.48602C5.1525 7.68652 5.18392 7.28677 5.302 6.95202C5.43686 6.57089 5.65533 6.22478 5.94139 5.93909C6.22746 5.6534 6.57385 5.43538 6.95517 5.30102C7.28883 5.18294 7.68858 5.15044 8.48917 5.08761C8.80767 5.06161 8.96583 5.04861 9.11967 5.01827C9.47128 4.94892 9.80562 4.81046 10.1033 4.61094C10.2333 4.52427 10.3536 4.42136 10.5962 4.21336Z" stroke="url(#paint0_linear_1_629)" stroke-width="1.625"/>
<path d="M9.20801 13.543L11.3747 15.7096L16.7913 10.293" stroke="url(#paint1_linear_1_629)" stroke-width="1.625" stroke-linecap="round" stroke-linejoin="round"/>
<defs>
<linearGradient id="paint0_linear_1_629" x1="3.0166" y1="12.9986" x2="22.9837" y2="12.9986" gradientUnits="userSpaceOnUse">
<stop stop-color="#B47BFE"/>
<stop offset="1" stop-color="#371E5A"/>
</linearGradient>
<linearGradient id="paint1_linear_1_629" x1="9.20801" y1="13.0013" x2="16.7913" y2="13.0013" gradientUnits="userSpaceOnUse">
<stop stop-color="#B47BFE"/>
<stop offset="1" stop-color="#371E5A"/>
</linearGradient>
</defs>
</svg>
