<svg width="24" height="24" viewBox="0 0 24 24" fill="none" xmlns="http://www.w3.org/2000/svg">
<path d="M22 14C22 17.771 22 19.657 20.828 20.828C19.656 21.999 17.771 22 14 22M10 22C6.229 22 4.343 22 3.172 20.828C2.001 19.656 2 17.771 2 14M10 2C6.229 2 4.343 2 3.172 3.172C2.001 4.344 2 6.229 2 10M14 2C17.771 2 19.657 2 20.828 3.172C21.999 4.344 22 6.229 22 10M4 11.5C4 11.5 6.4 9.5 12 9.5C17.6 9.5 20 11.5 20 11.5" stroke="url(#paint0_linear_1_617)" stroke-width="1.5" stroke-linecap="round"/>
<path d="M5.25 10C5.25 10.1989 5.32902 10.3897 5.46967 10.5303C5.61033 10.671 5.80109 10.75 6 10.75C6.19892 10.75 6.38968 10.671 6.53033 10.5303C6.67099 10.3897 6.75 10.1989 6.75 10H5.25ZM10 6.25H14V4.75H10V6.25ZM6.75 10V9.5H5.25V10H6.75ZM17.25 9.5V10H18.75V9.5H17.25ZM14 6.25C14.964 6.25 15.612 6.252 16.095 6.317C16.556 6.379 16.754 6.485 16.884 6.616L17.944 5.555C17.489 5.1 16.922 4.915 16.294 4.83C15.688 4.748 14.922 4.75 14 4.75V6.25ZM18.75 9.5C18.75 8.578 18.752 7.812 18.67 7.206C18.586 6.578 18.4 6.011 17.944 5.556L16.884 6.616C17.014 6.746 17.121 6.944 17.184 7.406C17.248 7.888 17.25 8.536 17.25 9.5H18.75ZM10 4.75C9.078 4.75 8.312 4.748 7.706 4.83C7.078 4.914 6.511 5.1 6.056 5.555L7.116 6.616C7.246 6.486 7.444 6.379 7.906 6.316C8.388 6.252 9.036 6.25 10 6.25V4.75ZM6.75 9.5C6.75 8.536 6.752 7.888 6.817 7.405C6.879 6.944 6.985 6.746 7.116 6.616L6.055 5.556C5.6 6.011 5.415 6.578 5.33 7.206C5.248 7.812 5.25 8.578 5.25 9.5H6.75Z" fill="url(#paint1_linear_1_617)"/>
<path d="M6 14V14.5C6 16.386 6 17.328 6.586 17.914C7.172 18.5 8.114 18.5 10 18.5H14C15.886 18.5 16.828 18.5 17.414 17.914C18 17.328 18 16.386 18 14.5V14" stroke="url(#paint2_linear_1_617)" stroke-width="1.5" stroke-linecap="round"/>
<defs>
<linearGradient id="paint0_linear_1_617" x1="2" y1="12" x2="22" y2="12" gradientUnits="userSpaceOnUse">
<stop stop-color="#B47BFE"/>
<stop offset="1" stop-color="#371E5A"/>
</linearGradient>
<linearGradient id="paint1_linear_1_617" x1="5.25" y1="7.75" x2="18.75" y2="7.75" gradientUnits="userSpaceOnUse">
<stop stop-color="#B47BFE"/>
<stop offset="1" stop-color="#371E5A"/>
</linearGradient>
<linearGradient id="paint2_linear_1_617" x1="6" y1="16.25" x2="18" y2="16.25" gradientUnits="userSpaceOnUse">
<stop stop-color="#B47BFE"/>
<stop offset="1" stop-color="#371E5A"/>
</linearGradient>
</defs>
</svg>
