<svg width="13" height="13" viewBox="0 0 13 13" fill="none" xmlns="http://www.w3.org/2000/svg">
<path d="M0.5 6.28726H3.71514M0.5 6.28726C0.5 9.48348 3.09104 12.0745 6.28726 12.0745M0.5 6.28726C0.5 3.09104 3.09104 0.5 6.28726 0.5M3.71514 6.28726H8.85938M3.71514 6.28726C3.71514 9.48348 4.86672 12.0745 6.28726 12.0745M3.71514 6.28726C3.71514 3.09104 4.86672 0.5 6.28726 0.5M8.85938 6.28726H12.0745M8.85938 6.28726C8.85938 3.09104 7.7078 0.5 6.28726 0.5M8.85938 6.28726C8.85938 9.48348 7.7078 12.0745 6.28726 12.0745M12.0745 6.28726C12.0745 3.09104 9.48348 0.5 6.28726 0.5M12.0745 6.28726C12.0745 9.48348 9.48348 12.0745 6.28726 12.0745" stroke="#EA580C" stroke-linecap="round" stroke-linejoin="round"/>
</svg>
