<svg width="18" height="18" viewBox="0 0 18 18" fill="none" xmlns="http://www.w3.org/2000/svg">
<path d="M11.25 7.49986L8.24996 10.4999L6.74996 8.99986M9.93453 2.59409L10.8503 3.37447C11.081 3.57107 11.3674 3.68993 11.6696 3.71404L12.8688 3.80962C13.5739 3.86589 14.134 4.4256 14.1903 5.1307L14.2856 6.33018C14.3097 6.63233 14.429 6.91919 14.6256 7.1499L15.4057 8.06536C15.8644 8.60373 15.8645 9.39565 15.4057 9.93402L14.6257 10.8496C14.4291 11.0803 14.31 11.3673 14.2859 11.6695L14.1899 12.8687C14.1336 13.5738 13.5744 14.1339 12.8693 14.1902L11.6696 14.2859C11.3675 14.31 11.0808 14.4285 10.8501 14.6252L9.93453 15.4055C9.39617 15.8643 8.60376 15.8644 8.06539 15.4056L7.14987 14.6252C6.91916 14.4286 6.63244 14.3099 6.33029 14.2857L5.13058 14.1902C4.42548 14.1339 3.86629 13.574 3.81002 12.8689L3.71408 11.6695C3.68996 11.3674 3.57084 11.0807 3.37423 10.85L2.5942 9.93406C2.13541 9.39569 2.13519 8.60402 2.59399 8.06565L3.37472 7.14976C3.57132 6.91906 3.68931 6.63233 3.71342 6.33018L3.80936 5.13084C3.86563 4.42574 4.42644 3.86582 5.13154 3.80955L6.32992 3.71397C6.63207 3.68986 6.91893 3.57109 7.14964 3.37449L8.06547 2.59409C8.60384 2.1353 9.39617 2.1353 9.93453 2.59409Z" stroke="#EA580C" stroke-linecap="round" stroke-linejoin="round"/>
</svg>
